<mxfile host="app.diagrams.net" modified="2021-10-26T17:27:54.295Z" agent="5.0 (Windows NT 10.0; Win64; x64) AppleWebKit/537.36 (KHTML, like Gecko) Chrome/94.0.4606.81 Safari/537.36" etag="FVJ9LLl_dWNaNFXnyIi1" version="15.5.9" type="github">
  <diagram id="kgpKYQtTHZ0yAKxKKP6v" name="Page-1">
    <mxGraphModel dx="1888" dy="521" grid="1" gridSize="10" guides="1" tooltips="1" connect="1" arrows="1" fold="1" page="1" pageScale="1" pageWidth="850" pageHeight="1100" math="0" shadow="0">
      <root>
        <mxCell id="0" />
        <mxCell id="1" parent="0" />
        <mxCell id="2X8ocmBGrffsRyVZczDk-34" value="&lt;font style=&quot;font-size: 10px&quot;&gt;если данных&lt;br&gt;нет в кэше&lt;/font&gt;" style="rounded=0;whiteSpace=wrap;html=1;align=left;" parent="1" vertex="1">
          <mxGeometry x="-680" y="260" width="670" height="242" as="geometry" />
        </mxCell>
        <mxCell id="3nuBFxr9cyL0pnOWT2aG-1" value="core-api-gateway" style="shape=umlLifeline;perimeter=lifelinePerimeter;container=1;collapsible=0;recursiveResize=0;rounded=0;shadow=0;strokeWidth=1;" parent="1" vertex="1">
          <mxGeometry x="-825" y="20" width="105" height="530" as="geometry" />
        </mxCell>
        <mxCell id="3nuBFxr9cyL0pnOWT2aG-2" value="" style="points=[];perimeter=orthogonalPerimeter;rounded=0;shadow=0;strokeWidth=1;" parent="3nuBFxr9cyL0pnOWT2aG-1" vertex="1">
          <mxGeometry x="48" y="70" width="10" height="450" as="geometry" />
        </mxCell>
        <mxCell id="3nuBFxr9cyL0pnOWT2aG-3" value="ИБ/МБ" style="verticalAlign=bottom;startArrow=oval;endArrow=block;startSize=8;shadow=0;strokeWidth=1;" parent="3nuBFxr9cyL0pnOWT2aG-1" target="3nuBFxr9cyL0pnOWT2aG-2" edge="1">
          <mxGeometry relative="1" as="geometry">
            <mxPoint x="-15" y="70" as="sourcePoint" />
          </mxGeometry>
        </mxCell>
        <mxCell id="dd9beqFMhDLrq-Xvyk_Y-9" value="&lt;span style=&quot;color: rgb(0 , 0 , 0) ; font-family: &amp;#34;helvetica&amp;#34; ; font-size: 9px ; font-style: normal ; font-weight: 400 ; letter-spacing: normal ; text-align: center ; text-indent: 0px ; text-transform: none ; word-spacing: 0px ; background-color: rgb(248 , 249 , 250) ; display: inline ; float: none&quot;&gt;/v1/acceptance-mobile/phones-by-mdmId/&lt;/span&gt;" style="text;whiteSpace=wrap;html=1;fontSize=9;" vertex="1" parent="3nuBFxr9cyL0pnOWT2aG-1">
          <mxGeometry x="61" y="72" width="170" height="30" as="geometry" />
        </mxCell>
        <mxCell id="3nuBFxr9cyL0pnOWT2aG-5" value="pmnt-acceptens-mobile" style="shape=umlLifeline;perimeter=lifelinePerimeter;container=1;collapsible=0;recursiveResize=0;rounded=0;shadow=0;strokeWidth=1;" parent="1" vertex="1">
          <mxGeometry x="-708" y="20" width="248" height="530" as="geometry" />
        </mxCell>
        <mxCell id="2X8ocmBGrffsRyVZczDk-13" value="&lt;font style=&quot;font-size: 10px&quot;&gt;если данные &lt;br&gt;есть в кэше&lt;/font&gt;" style="rounded=0;whiteSpace=wrap;html=1;align=left;" parent="3nuBFxr9cyL0pnOWT2aG-5" vertex="1">
          <mxGeometry x="28" y="95" width="402" height="125" as="geometry" />
        </mxCell>
        <mxCell id="3nuBFxr9cyL0pnOWT2aG-6" value="" style="points=[];perimeter=orthogonalPerimeter;rounded=0;shadow=0;strokeWidth=1;" parent="3nuBFxr9cyL0pnOWT2aG-5" vertex="1">
          <mxGeometry x="117.5" y="70" width="10" height="440" as="geometry" />
        </mxCell>
        <mxCell id="2X8ocmBGrffsRyVZczDk-21" value="REST поиск телефона для нотификации по mdm_id в МДМ" style="verticalAlign=bottom;endArrow=block;shadow=0;strokeWidth=1;entryX=0.06;entryY=0.137;entryDx=0;entryDy=0;entryPerimeter=0;" parent="3nuBFxr9cyL0pnOWT2aG-5" edge="1" target="dd9beqFMhDLrq-Xvyk_Y-15">
          <mxGeometry relative="1" as="geometry">
            <mxPoint x="127.5" y="260.08" as="sourcePoint" />
            <mxPoint x="527.5" y="260" as="targetPoint" />
          </mxGeometry>
        </mxCell>
        <mxCell id="dd9beqFMhDLrq-Xvyk_Y-4" value="&lt;span style=&quot;background-color: rgb(255 , 255 , 255)&quot;&gt;&lt;font style=&quot;font-size: 9px&quot;&gt;pmnt-sp-catalog-search/v1/catalog.operations/{id}&lt;/font&gt;&lt;/span&gt;" style="text;html=1;resizable=0;autosize=1;align=center;verticalAlign=middle;points=[];fillColor=none;strokeColor=none;rounded=0;fontSize=9;" vertex="1" parent="3nuBFxr9cyL0pnOWT2aG-5">
          <mxGeometry x="166" y="167" width="210" height="20" as="geometry" />
        </mxCell>
        <mxCell id="2X8ocmBGrffsRyVZczDk-26" value="SOAP поиск оператора сотовой связи по номеру телефона" style="verticalAlign=bottom;endArrow=block;shadow=0;strokeWidth=1;entryX=0.2;entryY=0.204;entryDx=0;entryDy=0;entryPerimeter=0;" parent="3nuBFxr9cyL0pnOWT2aG-5" edge="1">
          <mxGeometry x="-0.0116" y="1" relative="1" as="geometry">
            <mxPoint x="127.5" y="314" as="sourcePoint" />
            <mxPoint x="620" y="314.20000000000005" as="targetPoint" />
            <mxPoint as="offset" />
          </mxGeometry>
        </mxCell>
        <mxCell id="dd9beqFMhDLrq-Xvyk_Y-21" value="&lt;span style=&quot;background-color: rgb(255 , 255 , 255)&quot;&gt;&lt;font style=&quot;font-size: 9px&quot;&gt;pmnt-sp-catalog-search/v1/catalog.operations/{id}&lt;/font&gt;&lt;/span&gt;" style="text;html=1;resizable=0;autosize=1;align=center;verticalAlign=middle;points=[];fillColor=none;strokeColor=none;rounded=0;fontSize=9;" vertex="1" parent="3nuBFxr9cyL0pnOWT2aG-5">
          <mxGeometry x="166" y="380" width="210" height="20" as="geometry" />
        </mxCell>
        <mxCell id="3nuBFxr9cyL0pnOWT2aG-8" value="REST" style="verticalAlign=bottom;endArrow=block;shadow=0;strokeWidth=1;entryX=0.055;entryY=0.014;entryDx=0;entryDy=0;entryPerimeter=0;exitX=0.9;exitY=0.012;exitDx=0;exitDy=0;exitPerimeter=0;" parent="1" target="3nuBFxr9cyL0pnOWT2aG-6" edge="1" source="3nuBFxr9cyL0pnOWT2aG-2">
          <mxGeometry relative="1" as="geometry">
            <mxPoint x="-760" y="96" as="sourcePoint" />
            <mxPoint x="-660" y="96" as="targetPoint" />
          </mxGeometry>
        </mxCell>
        <mxCell id="3nuBFxr9cyL0pnOWT2aG-9" value="REST поиск ПУ" style="verticalAlign=bottom;endArrow=block;shadow=0;strokeWidth=1;entryX=-0.22;entryY=0.13;entryDx=0;entryDy=0;entryPerimeter=0;" parent="1" target="2X8ocmBGrffsRyVZczDk-19" edge="1">
          <mxGeometry relative="1" as="geometry">
            <mxPoint x="-580" y="189" as="sourcePoint" />
            <mxPoint x="-250" y="191" as="targetPoint" />
          </mxGeometry>
        </mxCell>
        <mxCell id="3nuBFxr9cyL0pnOWT2aG-10" value="response" style="verticalAlign=bottom;endArrow=open;dashed=1;endSize=8;shadow=0;strokeWidth=1;exitX=0.02;exitY=0.912;exitDx=0;exitDy=0;exitPerimeter=0;" parent="1" edge="1" source="2X8ocmBGrffsRyVZczDk-19">
          <mxGeometry relative="1" as="geometry">
            <mxPoint x="-580" y="223.97000000000003" as="targetPoint" />
            <mxPoint x="-260" y="224" as="sourcePoint" />
          </mxGeometry>
        </mxCell>
        <mxCell id="2X8ocmBGrffsRyVZczDk-1" value="поиск по mdm_id в кэше" style="verticalAlign=bottom;endArrow=block;shadow=0;strokeWidth=1;" parent="1" edge="1">
          <mxGeometry relative="1" as="geometry">
            <mxPoint x="-581" y="135" as="sourcePoint" />
            <mxPoint x="-420" y="135" as="targetPoint" />
          </mxGeometry>
        </mxCell>
        <mxCell id="2X8ocmBGrffsRyVZczDk-6" value="БШ" style="shape=umlLifeline;perimeter=lifelinePerimeter;container=1;collapsible=0;recursiveResize=0;rounded=0;shadow=0;strokeWidth=1;" parent="1" vertex="1">
          <mxGeometry x="-110" y="20" width="50" height="530" as="geometry" />
        </mxCell>
        <mxCell id="2X8ocmBGrffsRyVZczDk-25" value="" style="points=[];perimeter=orthogonalPerimeter;rounded=0;shadow=0;strokeWidth=1;" parent="2X8ocmBGrffsRyVZczDk-6" vertex="1">
          <mxGeometry x="20" y="310" width="10" height="50" as="geometry" />
        </mxCell>
        <mxCell id="2X8ocmBGrffsRyVZczDk-27" value="SOAP" style="verticalAlign=bottom;endArrow=block;shadow=0;strokeWidth=1;" parent="2X8ocmBGrffsRyVZczDk-6" edge="1">
          <mxGeometry x="-0.0116" y="1" relative="1" as="geometry">
            <mxPoint x="30" y="320.5" as="sourcePoint" />
            <mxPoint x="80" y="320" as="targetPoint" />
            <mxPoint as="offset" />
          </mxGeometry>
        </mxCell>
        <mxCell id="2X8ocmBGrffsRyVZczDk-8" value="МК" style="shape=umlLifeline;perimeter=lifelinePerimeter;container=1;collapsible=0;recursiveResize=0;rounded=0;shadow=0;strokeWidth=1;" parent="1" vertex="1">
          <mxGeometry x="-51" y="20" width="51" height="530" as="geometry" />
        </mxCell>
        <mxCell id="2X8ocmBGrffsRyVZczDk-29" value="" style="points=[];perimeter=orthogonalPerimeter;rounded=0;shadow=0;strokeWidth=1;" parent="2X8ocmBGrffsRyVZczDk-8" vertex="1">
          <mxGeometry x="20.5" y="315" width="10" height="40" as="geometry" />
        </mxCell>
        <mxCell id="2X8ocmBGrffsRyVZczDk-10" value="response" style="verticalAlign=bottom;endArrow=open;dashed=1;endSize=8;exitX=-0.133;exitY=0.844;shadow=0;strokeWidth=1;exitDx=0;exitDy=0;exitPerimeter=0;" parent="1" edge="1">
          <mxGeometry relative="1" as="geometry">
            <mxPoint x="-578" y="165" as="targetPoint" />
            <mxPoint x="-421.3299999999999" y="165.32000000000005" as="sourcePoint" />
          </mxGeometry>
        </mxCell>
        <mxCell id="3nuBFxr9cyL0pnOWT2aG-7" value="response" style="verticalAlign=bottom;endArrow=open;dashed=1;endSize=8;shadow=0;strokeWidth=1;entryX=1.12;entryY=0.965;entryDx=0;entryDy=0;entryPerimeter=0;" parent="1" edge="1" target="3nuBFxr9cyL0pnOWT2aG-2">
          <mxGeometry relative="1" as="geometry">
            <mxPoint x="-770" y="479.99999999999886" as="targetPoint" />
            <mxPoint x="-590" y="524" as="sourcePoint" />
          </mxGeometry>
        </mxCell>
        <mxCell id="2X8ocmBGrffsRyVZczDk-2" value="БД" style="shape=umlLifeline;perimeter=lifelinePerimeter;container=1;collapsible=0;recursiveResize=0;rounded=0;shadow=0;strokeWidth=1;" parent="1" vertex="1">
          <mxGeometry x="-450" y="20" width="70" height="530" as="geometry" />
        </mxCell>
        <mxCell id="dd9beqFMhDLrq-Xvyk_Y-12" value="" style="points=[];perimeter=orthogonalPerimeter;rounded=0;shadow=0;strokeWidth=1;" vertex="1" parent="2X8ocmBGrffsRyVZczDk-2">
          <mxGeometry x="30" y="108" width="10" height="43" as="geometry" />
        </mxCell>
        <mxCell id="dd9beqFMhDLrq-Xvyk_Y-16" value="&amp;nbsp;v1/info/person/get/unique" style="text;html=1;resizable=0;autosize=1;align=center;verticalAlign=middle;points=[];fillColor=none;strokeColor=none;rounded=0;fontSize=9;" vertex="1" parent="2X8ocmBGrffsRyVZczDk-2">
          <mxGeometry x="18" y="257" width="120" height="20" as="geometry" />
        </mxCell>
        <mxCell id="2X8ocmBGrffsRyVZczDk-30" value="SOAP" style="verticalAlign=bottom;endArrow=open;dashed=1;endSize=8;shadow=0;strokeWidth=1;" parent="2X8ocmBGrffsRyVZczDk-2" edge="1">
          <mxGeometry relative="1" as="geometry">
            <mxPoint x="-130" y="357" as="targetPoint" />
            <mxPoint x="356.22" y="357.2" as="sourcePoint" />
          </mxGeometry>
        </mxCell>
        <mxCell id="2X8ocmBGrffsRyVZczDk-11" value="pmnt-sp-catalog-search" style="shape=umlLifeline;perimeter=lifelinePerimeter;container=1;collapsible=0;recursiveResize=0;rounded=0;shadow=0;strokeWidth=1;" parent="1" vertex="1">
          <mxGeometry x="-370" y="20" width="140" height="530" as="geometry" />
        </mxCell>
        <mxCell id="2X8ocmBGrffsRyVZczDk-19" value="" style="points=[];perimeter=orthogonalPerimeter;rounded=0;shadow=0;strokeWidth=1;" parent="2X8ocmBGrffsRyVZczDk-11" vertex="1">
          <mxGeometry x="65" y="165" width="10" height="43" as="geometry" />
        </mxCell>
        <mxCell id="2X8ocmBGrffsRyVZczDk-22" value="response" style="verticalAlign=bottom;endArrow=open;dashed=1;endSize=8;shadow=0;strokeWidth=1;" parent="2X8ocmBGrffsRyVZczDk-11" edge="1">
          <mxGeometry relative="1" as="geometry">
            <mxPoint x="-210.5" y="291" as="targetPoint" />
            <mxPoint x="194" y="291" as="sourcePoint" />
          </mxGeometry>
        </mxCell>
        <mxCell id="2X8ocmBGrffsRyVZczDk-4" value="core-party" style="shape=umlLifeline;perimeter=lifelinePerimeter;container=1;collapsible=0;recursiveResize=0;rounded=0;shadow=0;strokeWidth=1;" parent="1" vertex="1">
          <mxGeometry x="-220" y="20" width="100" height="530" as="geometry" />
        </mxCell>
        <mxCell id="2X8ocmBGrffsRyVZczDk-28" value="SOAP" style="verticalAlign=bottom;endArrow=open;dashed=1;endSize=8;shadow=0;strokeWidth=1;exitX=-0.133;exitY=0.922;exitDx=0;exitDy=0;exitPerimeter=0;entryX=0.92;entryY=0.7;entryDx=0;entryDy=0;entryPerimeter=0;" parent="2X8ocmBGrffsRyVZczDk-4" edge="1">
          <mxGeometry relative="1" as="geometry">
            <mxPoint x="139.20000000000005" y="348" as="targetPoint" />
            <mxPoint x="187.67000000000007" y="349" as="sourcePoint" />
          </mxGeometry>
        </mxCell>
        <mxCell id="dd9beqFMhDLrq-Xvyk_Y-15" value="" style="points=[];perimeter=orthogonalPerimeter;rounded=0;shadow=0;strokeWidth=1;" vertex="1" parent="2X8ocmBGrffsRyVZczDk-4">
          <mxGeometry x="45" y="253.5" width="10" height="43" as="geometry" />
        </mxCell>
        <mxCell id="dd9beqFMhDLrq-Xvyk_Y-18" value="REST поиск ПУ" style="verticalAlign=bottom;endArrow=block;shadow=0;strokeWidth=1;entryX=-0.22;entryY=0.13;entryDx=0;entryDy=0;entryPerimeter=0;" edge="1" parent="1" target="dd9beqFMhDLrq-Xvyk_Y-20">
          <mxGeometry relative="1" as="geometry">
            <mxPoint x="-579" y="402" as="sourcePoint" />
            <mxPoint x="-249" y="404" as="targetPoint" />
          </mxGeometry>
        </mxCell>
        <mxCell id="dd9beqFMhDLrq-Xvyk_Y-19" value="response" style="verticalAlign=bottom;endArrow=open;dashed=1;endSize=8;shadow=0;strokeWidth=1;exitX=0.02;exitY=0.912;exitDx=0;exitDy=0;exitPerimeter=0;" edge="1" parent="1" source="dd9beqFMhDLrq-Xvyk_Y-20">
          <mxGeometry relative="1" as="geometry">
            <mxPoint x="-579" y="436.97" as="targetPoint" />
            <mxPoint x="-259" y="437" as="sourcePoint" />
          </mxGeometry>
        </mxCell>
        <mxCell id="dd9beqFMhDLrq-Xvyk_Y-20" value="" style="points=[];perimeter=orthogonalPerimeter;rounded=0;shadow=0;strokeWidth=1;" vertex="1" parent="1">
          <mxGeometry x="-304" y="398" width="10" height="43" as="geometry" />
        </mxCell>
        <mxCell id="dd9beqFMhDLrq-Xvyk_Y-22" value="сохранить в кэш" style="verticalAlign=bottom;endArrow=block;shadow=0;strokeWidth=1;" edge="1" parent="1">
          <mxGeometry relative="1" as="geometry">
            <mxPoint x="-579" y="462" as="sourcePoint" />
            <mxPoint x="-418" y="462" as="targetPoint" />
          </mxGeometry>
        </mxCell>
        <mxCell id="dd9beqFMhDLrq-Xvyk_Y-23" value="return" style="verticalAlign=bottom;endArrow=open;dashed=1;endSize=8;exitX=-0.133;exitY=0.844;shadow=0;strokeWidth=1;exitDx=0;exitDy=0;exitPerimeter=0;" edge="1" parent="1">
          <mxGeometry relative="1" as="geometry">
            <mxPoint x="-580" y="492" as="targetPoint" />
            <mxPoint x="-419.3299999999999" y="492.32000000000005" as="sourcePoint" />
          </mxGeometry>
        </mxCell>
        <mxCell id="dd9beqFMhDLrq-Xvyk_Y-24" value="" style="points=[];perimeter=orthogonalPerimeter;rounded=0;shadow=0;strokeWidth=1;" vertex="1" parent="1">
          <mxGeometry x="-418" y="455" width="10" height="43" as="geometry" />
        </mxCell>
      </root>
    </mxGraphModel>
  </diagram>
</mxfile>
